<svg t="1595401096345" class="icon" viewBox="0 0 1024 1024" version="1.1" xmlns="http://www.w3.org/2000/svg" p-id="2068" width="200" height="200"><path d="M5.298087 0H1024v1022.901797H5.298087z" fill="#FFFFFF" p-id="2069"></path><path d="M0 0.912696h1018.88742V1024H0z" fill="#FFFFFF" opacity=".5" p-id="2070"></path><path d="M594.268754 930.645333a71.323826 71.323826 0 0 1-46.005797-67.524637v-137.275363a57.395942 57.395942 0 0 1 37.264695-54.168116l89.956174-32.493449v-0.363594a54.672696 54.672696 0 0 1 15.834899-37.932522l41.204869-41.360695a409.689043 409.689043 0 0 0-110.562319-51.763943 245.129275 245.129275 0 1 0-233.598145 0 412.026435 412.026435 0 0 0-294.837797 388.229566 9.868986 9.868986 0 0 0-0.192927 1.936695v29.43629a9.802203 9.802203 0 0 0 9.802203 9.817044h509.328695z" fill="#2ABBB4" p-id="2071"></path><path d="M829.580986 625.025855l-46.636522-46.094841a13.297159 13.297159 0 0 0-1.862493-1.484057 13.074551 13.074551 0 0 0-5.37229-2.114783 10.091594 10.091594 0 0 0-1.254029-0.133565 12.243478 12.243478 0 0 0-3.650782 0.296811 13.274899 13.274899 0 0 0-4.452174 1.944116 13.779478 13.779478 0 0 0-1.951537 1.639884l-45.671884 46.06516a13.356522 13.356522 0 0 0-3.480116 6.225623 13.104232 13.104232 0 0 0-0.385855 3.072 13.401043 13.401043 0 0 0 3.086841 8.704c0.237449 0.289391 0.489739 0.571362 0.742029 0.838493a13.274899 13.274899 0 0 0 5.060638 3.190724 13.111652 13.111652 0 0 0 5.060637 0.690087 12.673855 12.673855 0 0 0 3.932754-0.845913h0.742029l0.615884-0.615884 0.742029-0.408116 0.742029-0.467478-1.981217-2.879073 2.968115 2.137044c0.304232-0.25971 0.601043-0.534261 1.090783-1.03142l22.921275-23.121624v119.251479a13.215536 13.215536 0 0 0 13.356522 13.356521 13.000348 13.000348 0 0 0 4.711884-0.934956 13.274899 13.274899 0 0 0 4.281507-2.782609 13.438145 13.438145 0 0 0 3.539479-5.936232 13.237797 13.237797 0 0 0 0.512-3.658203v-119.615072l24.093681 23.81913a12.851942 12.851942 0 0 0 2.352232 1.840232 13.282319 13.282319 0 0 0 5.320348 1.862493 13.920464 13.920464 0 0 0 1.580521 0.096464l1.01658-0.044522a12.896464 12.896464 0 0 0 2.226087-0.371014 13.089391 13.089391 0 0 0 6.173681-3.591421 12.874203 12.874203 0 0 0 2.166725-2.968116 13.430725 13.430725 0 0 0-2.359652-15.89426z m-108.432696 16.473044z" fill="#2ABBB4" p-id="2072"></path><path d="M953.321739 710.195942l-124.660869-44.922435a12.911304 12.911304 0 0 0-16.606609 13.252638v1.691826a13.883362 13.883362 0 0 0 8.822725 13.289739l101.264695 35.468986-146.335536 51.259362a14.84058 14.84058 0 0 1-10.054493-0.074203l-139.501449-51.2 101.427942-37.220174a13.905623 13.905623 0 0 0 8.666898-13.230377 12.918725 12.918725 0 0 0-16.614029-13.252637l-124.660869 44.922434a16.050087 16.050087 0 0 0-10.076754 15.308058v140.473508a30.334145 30.334145 0 0 0 19.055305 28.93913l157.866666 56.876522a36.062609 36.062609 0 0 0 24.583421 0l157.866666-56.876522a30.341565 30.341565 0 0 0 19.062725-28.93913V725.504a16.057507 16.057507 0 0 0-10.106435-15.308058z" fill="#2ABBB4" p-id="2073"></path></svg>