<svg t="1595208332219" class="icon" viewBox="0 0 1024 1024" version="1.1" xmlns="http://www.w3.org/2000/svg" p-id="1640" width="200" height="200"><path d="M42.49 289.59c8.05-5.2 17.55-7.97 27.13-7.28 11.7-1.03 22.45 4.61 32.43 9.94 15.43 8.34 26.66 22.16 38.14 35 10.97 12.91 22.27 25.49 33.82 37.85 12.76 14.52 27.42 27.13 42.05 39.71 19.38 15.55 40.95 28.56 64.18 37.48 12.36 3.51 24.5 8.38 37.3 9.94 8.85 0.84 17.55 2.82 26.44 3.11h337.95c6.51-0.25 12.91-1.68 19.46-1.94 27.75-2.01 54.7-10.31 79.79-22.12a304.728 304.728 0 0 0 37.66-22.6c10.71-7.57 20.4-16.42 30.2-25.09 9.51-8.52 18.58-17.55 27.13-27.06 5.74-6.51 11.99-12.54 17.23-19.53 9.65-12.8 18.72-26.33 30.75-37 8.01-6.33 16.46-12.98 26.73-14.81 9.69-1.61 20.29-1.47 28.96 3.8 12.47 7.57 21.03 20.22 26.51 33.49 6.4 12.47 8.7 26.4 11.59 39.97 2.09 9.36 2.63 18.94 4.21 28.38 0.55 6.69 0.73 13.38 1.72 20v327.86H0V475.25c0.51-20.37 0.11-40.74 0.22-61.07 0.15-7.72-0.29-15.47 0.59-23.11 1.83-10.5 1.83-21.21 4.5-31.56 2.05-12.87 6.11-25.3 11.08-37.29 5.63-12.95 14.55-24.51 26.1-32.63z m126.35 178.67c-9.58 3.29-19.3 6.54-27.9 11.99-20.48 12.03-36.75 31.01-45.71 53.02a83.351 83.351 0 0 0-7.86 33.39c-1.28 7.42-1.14 15.07 0.07 22.49 0 11.88 3.21 23.59 8.37 34.26 3.77 9.51 9.58 18.06 15.91 26.07 7.24 8.3 15.03 16.28 24.5 22.02 14.41 9.36 30.64 15.94 47.65 18.54 1.82-0.11 4.31 0.73 5.37-1.35-3.33-4.97-6.98-9.76-9.58-15.18-5.23-9.21-7.2-19.63-10.02-29.69-1.35-5.81-2.19-11.7-3.58-17.55-1.32-4.72-0.3-9.69-0.99-14.48-1.21-5.41-0.59-10.97-0.88-16.46-0.18-14.99-0.07-30.03 0.11-45.02-0.15-4.87 1.43-9.58 1.13-14.45 2.56-18.06 6.11-36.35 14.26-52.87 2.71-5.67 6.51-10.71 9.8-16.05-6.65-2.7-14.07-0.62-20.65 1.32z m42.08-2.23c0.54 1.8 1.36 3.5 2.42 5.04 3.87 5.52 7.79 11.19 10.13 17.59 3.44 10.09 7.17 20.22 8.59 30.82 0.73 4.25 1.98 8.41 2.71 12.66 0.26 3.65 0 7.42 0.99 11.04 0.7 9.15-0.47 18.47 1.1 27.58 0 6.14 0.55 12.36-0.7 18.43-0.26 7.16 0.04 14.37-0.36 21.54-0.88 3.66-0.73 7.49-1.1 11.23-0.8 4.64-1.98 9.21-2.67 13.89-1.43 11.92-5.45 23.33-9.62 34.52-3.04 6.62-7.28 12.58-11.44 18.5 5.04 2.67 10.78 0.47 15.91-0.88 14.99-3.95 29.14-10.6 41.79-19.6 7.31-5.19 13.24-12 19.53-18.28a107.922 107.922 0 0 0 21.79-41.73c1.09-4.39 2.78-8.63 2.89-13.16-0.11-5.78 1.35-11.48 0.91-17.3 0.44-6.95-0.8-13.82-1.17-20.77-6.8-35.06-29.5-64.98-61.43-80.96-12.66-5.62-26.08-11.62-40.27-10.16z m571.74 5.74c-17.55 6.8-34.08 17.19-46.04 31.85-10.79 11.37-17.56 25.86-23.11 40.37-3.77 13.97-5.16 28.52-4.24 43 1.13 4.43 0.51 9.11 1.72 13.53 1.35 9.43 5.12 18.21 9.03 26.8 9.88 20.48 26.22 37.7 46.15 48.63 10.97 6.77 23.59 9.98 35.91 13.35 3.04 0.95 6.25 0.73 9.4 0.77 0.29-1.46 0.07-3.04-1.1-4.1-8.78-10.05-13.09-23.04-16.27-35.8-1.9-8.7-5.05-17.19-5.49-26.15-1.32-4.79-0.18-9.87-1.46-14.66-0.55-4.5-0.14-9.07-1.24-13.53-0.33-11.55-0.33-23.14 0.04-34.74 1.46-6.22 0.25-12.76 1.82-19.01-0.29-12.18 3.15-24.03 6.04-35.73 2.56-12.18 7.24-24.03 14.62-34.08 1.46-1.79 2.29-3.99 2.38-6.29-9.73-0.64-19.24 2.21-28.16 5.79z m50.82-4.75c3.66 5.7 7.97 10.97 10.68 17.19 6.55 14.99 9.43 31.19 12.98 47.03 2.31 18.54 1.36 37.3 1.54 55.95-0.18 9.88 0.47 19.86-1.03 29.66 0.18 8.89-2.63 17.41-4.39 26.03-2.2 10.24-4.94 20.52-9.29 30.1-2.74 6.14-7.86 10.86-10.64 16.97 3.48 0.03 7.06 0.55 10.46-0.47 10.72-3 21.72-5.53 31.53-11.01a112.083 112.083 0 0 0 53.6-59.24c3.51-8.92 6.51-18.29 6.58-27.94 1.35-7.09 0.62-14.37 0.84-21.57-0.76-7.76-1.31-15.58-3.62-23.11a117.87 117.87 0 0 0-19.01-37.67c-4.39-5.85-9.51-10.97-14.63-16.09-12.29-11.85-28.16-19.2-44.24-24.47-6.84-2.02-14.41-4.03-21.36-1.36zM479.18 550.76c-3.69 1.86-6.07 6.91-3.47 10.6 9.18 13.9 19.27 27.1 28.93 40.59 3.73 0.18 7.49 0.22 11.23 0.11 2.45 0.3 3.8-2.19 5.12-3.8 8.04-12.03 17.11-23.3 25.6-35 2.34-2.71 2.59-7.09 0.18-9.8-3.04-3.73-7.86-5.31-12.32-6.58-14.34-0.29-28.67 0-43.04-0.14-4.4-0.19-8.42 2-12.23 4.02z m18.4 78.98c-1.72 5.23-1.32 10.67-1.61 16.09-1.04 6.79-2.45 13.51-4.2 20.15-6.51 21.58-29.11 36.79-51.49 35.32-13.4-0.69-26.53-4.1-38.58-10.02-3.62-1.72-6.87-4.61-11.04-4.72-1.53 3.88-1.17 8.12-0.99 12.21 1.5 5.96 7.39 8.92 12.36 11.63 12.07 5.3 25.27 7.28 38.22 9.32 4.1 0.14 8.05-1.13 12.06-1.79 12.36-1.94 24.94-5.34 35.11-12.98 7.6-5.12 12.21-13.2 17.59-20.37 2.01-3.29 6.37-1.61 9.51-2.05 4.54 4.28 7.64 9.72 11.41 14.62 8.15 9.43 19.75 15.32 31.63 18.58 10.42 2.3 21.17 3.84 31.88 2.63 4.46-0.91 9-1.5 13.5-2.15 5.85-1.72 11.85-3.18 17.33-5.89 5.16-3.04 10.97-6.44 13.02-12.47 2.05-4.21-0.15-8.66-1.21-12.8-12.87 6.58-26.03 13.27-40.55 15.29-7.26 0.3-14.53 0.29-21.79-0.04a50.707 50.707 0 0 1-31.67-18.8 71.864 71.864 0 0 1-11.78-34.92c-0.73-5.67-0.8-11.56-3.4-16.82a68.113 68.113 0 0 0-25.3 0v-0.02z m0 0" fill="#333333" p-id="1641"></path></svg>